<svg xmlns="http://www.w3.org/2000/svg" viewBox="0 0 960 420" role="img" aria-labelledby="title desc">
  <title id="title">Doc Reader local-first speech workflow</title>
  <desc id="desc">Doc Reader reads highlighted text when Right Command is pressed, turns on the microphone for local speech-to-text when ALT is held for about 1.5 seconds, and saves everything into a Library with Signal Map analysis.</desc>
  <style>
    svg {
      background: #f7f8f6;
      color: #151716;
      font-family: ui-sans-serif, system-ui, -apple-system, BlinkMacSystemFont, "Segoe UI", sans-serif;
    }

    .panel {
      fill: #ffffff;
      stroke: #d6ddd7;
      stroke-width: 1.5;
      filter: drop-shadow(0 16px 26px rgb(25 34 29 / .14));
    }

    .panel-dark {
      fill: #191d1b;
      stroke: #303832;
      stroke-width: 1.5;
      filter: drop-shadow(0 16px 26px rgb(25 34 29 / .18));
    }

    .bar { fill: #242a26; }
    .dot-red { fill: #ff5f57; }
    .dot-yellow { fill: #ffbd2e; }
    .dot-green { fill: #28c840; }
    .title-text { fill: #d8ded9; font-size: 13px; font-weight: 700; letter-spacing: 0; }
    .h1 { fill: #151716; font-size: 24px; font-weight: 800; letter-spacing: 0; }
    .h2 { fill: #151716; font-size: 16px; font-weight: 800; letter-spacing: 0; }
    .h2-light { fill: #f4f7f4; font-size: 16px; font-weight: 800; letter-spacing: 0; }
    .body { fill: #4d5851; font-size: 12px; font-weight: 650; letter-spacing: 0; }
    .body-light { fill: #d6ded8; font-size: 12px; font-weight: 650; letter-spacing: 0; }
    .small { fill: #66736b; font-size: 10.5px; font-weight: 700; letter-spacing: 0; }
    .small-light { fill: #aeb9b2; font-size: 10.5px; font-weight: 700; letter-spacing: 0; }
    .footer { fill: #66736b; font-size: 9.5px; font-weight: 650; letter-spacing: 0; }
    .mono { font-family: SFMono-Regular, Menlo, Monaco, Consolas, "Liberation Mono", monospace; letter-spacing: 0; }
    .green { fill: #1b8f5a; }
    .blue { fill: #2270c5; }
    .amber { fill: #a76d13; }
    .red { fill: #c84235; }

    .card {
      fill: #f8faf8;
      stroke: #dce4de;
      stroke-width: 1.2;
    }

    .chip {
      fill: #edf5ef;
      stroke: #c9dbcf;
      stroke-width: 1;
    }

    .gpu-chip {
      fill: #222a25;
      stroke: #4b5a50;
      stroke-width: 1;
    }

    .arrow {
      fill: none;
      stroke: #2b8060;
      stroke-width: 4.4;
      stroke-linecap: round;
      stroke-dasharray: 12 10;
      animation: arrow-flow 7s linear infinite;
    }

    .arrow-blue {
      stroke: #2e75bd;
      animation-delay: -2.5s;
    }

    .reading-card {
      animation: reading-pulse 10s ease-in-out infinite;
    }

    .dictation-card {
      animation: dictation-pulse 10s ease-in-out infinite;
    }

    .gpu-light {
      animation: gpu-light 10s ease-in-out infinite;
    }

    .wave {
      fill: none;
      stroke: #20a46b;
      stroke-width: 4;
      stroke-linecap: round;
      animation: wave-draw 10s ease-in-out infinite;
      stroke-dasharray: 140;
      stroke-dashoffset: 140;
    }

    .meter-fill {
      fill: #24b36b;
      animation: meter-grow 10s ease-in-out infinite;
      transform-box: fill-box;
      transform-origin: left;
    }

    .recording-hud {
      animation: hud-show 10s ease-in-out infinite;
      opacity: 0;
      transform: translateY(8px);
    }

    .signal-bar-a { animation: signal-a 10s ease-in-out infinite; transform-box: fill-box; transform-origin: bottom; }
    .signal-bar-b { animation: signal-b 10s ease-in-out infinite; transform-box: fill-box; transform-origin: bottom; }
    .signal-bar-c { animation: signal-c 10s ease-in-out infinite; transform-box: fill-box; transform-origin: bottom; }

    @keyframes arrow-flow {
      to { stroke-dashoffset: -44; }
    }

    @keyframes reading-pulse {
      0%, 9%, 42%, 100% { opacity: .9; }
      13%, 35% { opacity: 1; }
    }

    @keyframes dictation-pulse {
      0%, 43%, 84%, 100% { opacity: .9; }
      50%, 73% { opacity: 1; }
    }

    @keyframes gpu-light {
      0%, 11%, 82%, 100% { fill: #4b5a50; }
      17%, 36% { fill: #24b36b; }
      51%, 74% { fill: #3e9df0; }
    }

    @keyframes wave-draw {
      0%, 15%, 100% { stroke-dashoffset: 140; opacity: 0; }
      22%, 38% { stroke-dashoffset: 0; opacity: 1; }
      45% { opacity: 0; }
    }

    @keyframes meter-grow {
      0%, 45%, 100% { transform: scaleX(.08); }
      51% { transform: scaleX(.42); }
      57% { transform: scaleX(.93); }
      63% { transform: scaleX(.28); }
      70% { transform: scaleX(.74); }
      78% { transform: scaleX(.52); }
    }

    @keyframes hud-show {
      0%, 43%, 86%, 100% { opacity: 0; transform: translateY(8px); }
      49%, 78% { opacity: 1; transform: translateY(0); }
    }

    @keyframes signal-a {
      0%, 78%, 100% { transform: scaleY(.35); }
      86%, 96% { transform: scaleY(.86); }
    }

    @keyframes signal-b {
      0%, 78%, 100% { transform: scaleY(.48); }
      86%, 96% { transform: scaleY(1); }
    }

    @keyframes signal-c {
      0%, 78%, 100% { transform: scaleY(.3); }
      86%, 96% { transform: scaleY(.72); }
    }
  </style>

  <defs>
    <marker id="arrowhead" markerWidth="14" markerHeight="14" refX="12" refY="5" orient="auto" markerUnits="userSpaceOnUse">
      <path d="M0,0 L0,10 L14,5 z" fill="#2b8060"/>
    </marker>
    <marker id="arrowhead-blue" markerWidth="14" markerHeight="14" refX="12" refY="5" orient="auto" markerUnits="userSpaceOnUse">
      <path d="M0,0 L0,10 L14,5 z" fill="#2e75bd"/>
    </marker>
  </defs>

  <rect class="panel" x="28" y="28" width="904" height="364" rx="18"/>
  <path class="bar" d="M46 28h868c10 0 18 8 18 18v36H28V46c0-10 8-18 18-18z"/>
  <circle class="dot-red" cx="57" cy="55" r="6"/>
  <circle class="dot-yellow" cx="80" cy="55" r="6"/>
  <circle class="dot-green" cx="103" cy="55" r="6"/>
  <text class="title-text" x="480" y="60" text-anchor="middle">Doc Reader - local-first speech workspace</text>

  <text class="h1" x="58" y="116">Read, dictate, analyze locally</text>
  <text class="body" x="58" y="141">Right Command reads highlighted text. Hold ALT ~1.5s to turn on the mic.</text>

  <rect class="panel" x="58" y="166" width="284" height="150" rx="12"/>
  <text class="h2" x="78" y="196">Mac shortcuts</text>

  <rect class="card" x="78" y="210" width="244" height="42" rx="8"/>
  <circle class="green" cx="96" cy="231" r="6"/>
  <text class="body" x="112" y="228">Highlight text + Right Cmd</text>
  <text class="small" x="112" y="244">Kokoro reads it back with TTS</text>

  <rect class="card" x="78" y="262" width="244" height="42" rx="8"/>
  <circle class="blue" cx="96" cy="283" r="6"/>
  <text class="body" x="112" y="280">Hold ALT for ~1.5 seconds</text>
  <text class="small" x="112" y="296">Mac speech-to-text turns on</text>

  <path class="arrow" d="M356 232 C370 222 383 224 392 236" marker-end="url(#arrowhead)"/>
  <path class="arrow arrow-blue" d="M392 274 C377 286 368 286 356 280" marker-end="url(#arrowhead-blue)"/>

  <rect class="panel" x="400" y="146" width="292" height="202" rx="14"/>
  <text class="h2" x="424" y="178">Library</text>
  <rect class="chip" x="588" y="160" width="78" height="26" rx="13"/>
  <text class="small green" x="627" y="178" text-anchor="middle">Signal Map</text>

  <g class="reading-card">
    <rect class="card" x="424" y="196" width="242" height="42" rx="8"/>
    <circle class="green" cx="442" cy="217" r="7"/>
    <text class="body" x="458" y="214">TTS readback card</text>
    <text class="small" x="458" y="230">Highlighted text queued for Kokoro</text>
  </g>

  <g class="dictation-card">
    <rect class="card" x="424" y="248" width="242" height="42" rx="8"/>
    <circle class="blue" cx="442" cy="269" r="7"/>
    <text class="body" x="458" y="266">STT dictation card</text>
    <text class="small" x="458" y="282">ALT-held mic copied or inserted</text>
  </g>

  <rect class="card" x="424" y="300" width="242" height="32" rx="8"/>
  <rect class="signal-bar-a green" x="442" y="311" width="8" height="15" rx="3"/>
  <rect class="signal-bar-b blue" x="458" y="305" width="8" height="21" rx="3"/>
  <rect class="signal-bar-c amber" x="474" y="314" width="8" height="12" rx="3"/>
  <text class="small" x="498" y="320">STT / TTS / open</text>

  <path class="arrow" d="M708 222 C720 209 732 209 742 220" marker-end="url(#arrowhead)"/>
  <path class="arrow arrow-blue" d="M742 276 C731 289 719 289 708 272" marker-end="url(#arrowhead-blue)"/>

  <rect class="panel-dark" x="752" y="140" width="158" height="208" rx="14"/>
  <text class="h2-light" x="774" y="174">Local Speech</text>
  <text class="small-light" x="774" y="196">Mac-first private audio</text>

  <rect class="gpu-chip" x="774" y="216" width="112" height="30" rx="8"/>
  <circle class="gpu-light" cx="793" cy="231" r="6"/>
  <text class="body-light" x="808" y="236">Kokoro</text>

  <rect class="gpu-chip" x="774" y="258" width="112" height="30" rx="8"/>
  <circle class="gpu-light" cx="793" cy="273" r="6"/>
  <text class="body-light" x="808" y="278">STT</text>

  <rect class="gpu-chip" x="774" y="300" width="112" height="30" rx="8"/>
  <circle class="gpu-light" cx="793" cy="315" r="6"/>
  <text class="body-light" x="808" y="320">Ollama</text>

  <path class="wave" d="M764 111c14-20 25 20 39 0s25 20 39 0 25 20 39 0"/>
  <text class="footer" x="512" y="374" text-anchor="middle">Mac-local default. Remote speech and OpenAI are explicit choices.</text>

  <g class="recording-hud">
    <rect class="panel-dark" x="72" y="326" width="236" height="48" rx="12"/>
    <circle class="dot-red" cx="93" cy="344" r="5"/>
    <text class="small-light" x="107" y="348">Recording...</text>
    <circle cx="285" cy="344" r="11" fill="#2c3430" stroke="#59645d"/>
    <text class="small-light" x="285" y="348" text-anchor="middle">x</text>
    <rect x="92" y="359" width="184" height="5" rx="2.5" fill="#5b655f"/>
    <rect class="meter-fill" x="92" y="359" width="184" height="5" rx="2.5"/>
  </g>
</svg>
